# This file uses centimeters as units for non-parametric coordinates.

mtllib pirate_ship_cannononly.mtl
g default
v -0.836642 0.015130 0.160326
v 0.143030 0.015130 0.227751
v -0.836642 0.169153 0.006303
v 0.143030 0.236579 0.006303
v -0.836642 -0.138892 0.006303
v 0.143030 -0.206318 0.006303
v -0.836642 0.015130 -0.147719
v 0.143030 0.015130 -0.215145
v 0.300251 0.015130 0.006303
v -0.172551 0.015130 0.213368
v -0.172551 0.222195 0.006303
v -0.172551 0.015130 -0.200761
v -0.172551 -0.191934 0.006303
v -0.263941 0.180742 0.006303
v -0.263941 0.015130 -0.159308
v -0.263941 -0.150481 0.006303
v -0.263941 0.015130 0.171915
v -0.836642 0.015130 0.107934
v -0.836642 0.116761 0.006303
v -0.836642 -0.086500 0.006303
v -0.836642 0.015130 -0.095327
v -0.012249 0.015130 0.123642
v -0.012249 0.132469 0.006303
v -0.012249 -0.102208 0.006303
v -0.012249 0.015130 -0.111036
vt 0.468800 0.156200
vt 0.468800 0.218800
vt 0.390600 0.218800
vt 0.390600 0.156200
vt 0.468800 0.281200
vt 0.390600 0.281200
vt 0.468800 0.312500
vt 0.390600 0.312500
vt 0.468800 0.093800
vt 0.390600 0.093800
vt 0.500000 0.343800
vt 0.531200 0.343800
vt 0.515600 0.375000
vt 0.500000 0.406200
vt 0.531200 0.406200
vt 0.515600 0.093800
vt 0.515600 0.156200
vt 0.484400 0.156200
vt 0.484400 0.093800
vt 0.515600 0.281200
vt 0.515600 0.312500
vt 0.484400 0.312500
vt 0.484400 0.281200
vt 0.515600 0.218800
vt 0.484400 0.218800
vt 0.390600 0.406200
vt 0.390600 0.375000
vt 0.406200 0.375000
vt 0.406200 0.406200
vt 0.390600 0.468800
vt 0.390600 0.437500
vt 0.406200 0.437500
vt 0.406200 0.468800
vt 0.390600 0.343800
vt 0.406200 0.343800
vt 0.484400 0.406200
vt 0.484400 0.437500
vt 0.484400 0.468800
vt 0.484400 0.375000
vt 0.484400 0.343800
vt 0.500000 0.468800
vt 0.500000 0.437500
vt 0.515600 0.437500
vt 0.515600 0.468800
vn -0.014301 0.707034 0.707034
vn -0.014301 0.707034 0.707034
vn -0.014301 0.707034 0.707034
vn -0.014301 0.707034 0.707034
vn -0.014301 0.707034 -0.707034
vn -0.014301 0.707034 -0.707034
vn -0.014301 0.707034 -0.707034
vn -0.014301 0.707034 -0.707034
vn -0.014301 -0.707034 -0.707034
vn -0.014301 -0.707034 -0.707034
vn -0.014301 -0.707034 -0.707034
vn -0.014301 -0.707034 -0.707034
vn -0.014301 -0.707034 0.707034
vn -0.014301 -0.707034 0.707034
vn -0.014301 -0.707034 0.707034
vn -0.014301 -0.707034 0.707034
vn 0.705695 -0.500996 0.500996
vn 0.705695 -0.500996 0.500996
vn 0.705695 -0.500996 0.500996
vn 0.705695 0.500996 0.500996
vn 0.705695 0.500996 0.500996
vn 0.705695 0.500996 0.500996
vn 0.705695 -0.500996 -0.500996
vn 0.705695 -0.500996 -0.500996
vn 0.705695 -0.500996 -0.500996
vn 0.705695 0.500996 -0.500996
vn 0.705695 0.500996 -0.500996
vn 0.705695 0.500996 -0.500996
vn -0.032202 -0.706740 0.706740
vn -0.032202 -0.706740 0.706740
vn -0.032202 -0.706740 0.706740
vn -0.032202 -0.706740 0.706740
vn -0.032202 -0.706740 -0.706740
vn -0.032202 -0.706740 -0.706740
vn -0.032202 -0.706740 -0.706740
vn -0.032202 -0.706740 -0.706740
vn -0.032202 0.706740 -0.706740
vn -0.032202 0.706740 -0.706740
vn -0.032202 0.706740 -0.706740
vn -0.032202 0.706740 -0.706740
vn -0.032202 0.706740 0.706740
vn -0.032202 0.706740 0.706740
vn -0.032202 0.706740 0.706740
vn -0.032202 0.706740 0.706740
vn -0.305410 -0.673322 0.673322
vn -0.305410 -0.673322 0.673322
vn -0.305410 -0.673322 0.673322
vn -0.305410 -0.673322 0.673322
vn -0.305410 -0.673322 -0.673322
vn -0.305410 -0.673322 -0.673322
vn -0.305410 -0.673322 -0.673322
vn -0.305410 -0.673322 -0.673322
vn -0.305410 0.673322 -0.673322
vn -0.305410 0.673322 -0.673322
vn -0.305410 0.673322 -0.673322
vn -0.305410 0.673322 -0.673322
vn -0.305410 0.673322 0.673322
vn -0.305410 0.673322 0.673322
vn -0.305410 0.673322 0.673322
vn -0.305410 0.673322 0.673322
vn -1.000000 0.000000 0.000000
vn -1.000000 0.000000 0.000000
vn -1.000000 0.000000 0.000000
vn -1.000000 0.000000 0.000000
vn -1.000000 0.000000 0.000000
vn -1.000000 0.000000 0.000000
vn -1.000000 0.000000 0.000000
vn -1.000000 0.000000 0.000000
vn -1.000000 0.000000 0.000000
vn -1.000000 0.000000 0.000000
vn -1.000000 0.000000 0.000000
vn -1.000000 0.000000 0.000000
vn -1.000000 0.000000 0.000000
vn -1.000000 0.000000 0.000000
vn -1.000000 0.000000 0.000000
vn -1.000000 0.000000 0.000000
vn 0.013501 -0.707042 -0.707042
vn 0.013501 -0.707042 -0.707042
vn 0.013501 -0.707042 -0.707042
vn 0.013501 -0.707042 -0.707042
vn 0.013501 0.707042 -0.707042
vn 0.013501 0.707042 -0.707042
vn 0.013501 0.707042 -0.707042
vn 0.013501 0.707042 -0.707042
vn 0.013501 -0.707042 0.707042
vn 0.013501 -0.707042 0.707042
vn 0.013501 -0.707042 0.707042
vn 0.013501 -0.707042 0.707042
vn 0.013501 0.707042 0.707042
vn 0.013501 0.707042 0.707042
vn 0.013501 0.707042 0.707042
vn 0.013501 0.707042 0.707042
vn -1.000000 0.000000 0.000000
vn -1.000000 0.000000 0.000000
vn -1.000000 0.000000 0.000000
vn -1.000000 0.000000 0.000000
s off
g polySurface1 pirate_ship:Mesh
usemtl pirate_ship:ship_material
f 17/1/1 14/2/2 3/3/3 1/4/4
f 14/2/5 15/5/6 7/6/7 3/3/8
f 15/5/9 16/7/10 5/8/11 7/6/12
f 16/9/13 17/1/14 1/4/15 5/10/16
f 2/11/17 6/12/18 9/13/19
f 4/14/20 2/11/21 9/13/22
f 6/12/23 8/15/24 9/13/25
f 8/15/26 4/14/27 9/13/28
f 6/16/29 2/17/30 10/18/31 13/19/32
f 8/20/33 6/21/34 13/22/35 12/23/36
f 4/24/37 8/20/38 12/23/39 11/25/40
f 2/17/41 4/24/42 11/25/43 10/18/44
f 13/19/45 10/18/46 17/1/47 16/9/48
f 12/23/49 13/22/50 16/7/51 15/5/52
f 11/25/53 12/23/54 15/5/55 14/2/56
f 10/18/57 11/25/58 14/2/59 17/1/60
f 3/26/61 7/27/62 21/28/63 19/29/64
f 5/30/65 1/31/66 18/32/67 20/33/68
f 7/27/69 5/34/70 20/35/71 21/28/72
f 1/31/73 3/26/74 19/29/75 18/32/76
f 18/32/77 19/29/78 23/36/79 22/37/80
f 20/33/81 18/32/82 22/37/83 24/38/84
f 19/29/85 21/28/86 25/39/87 23/36/88
f 21/28/89 20/35/90 24/40/91 25/39/92
f 23/41/93 25/42/94 24/43/95 22/44/96
